<?xml version="1.0" encoding="UTF-8"?>
<svg version="1.1" viewBox="0 0 90 90" xmlns="http://www.w3.org/2000/svg">
<path d="m45 0c-24.849 0-45 20.151-45 45s20.151 45 45 45 45-20.151 45-45-20.142-45-45-45zm-22.797 46.512 0.189-0.306 11.709-18.315c0.171-0.261 0.576-0.234 0.702 0.054 1.953 4.383 3.645 9.837 2.853 13.23-0.333 1.395-1.26 3.285-2.304 5.031-0.135 0.252-0.279 0.504-0.441 0.747-0.072 0.108-0.198 0.171-0.333 0.171h-12.033c-0.324 0-0.513-0.351-0.342-0.612zm52.173 6.3c0 0.171-0.099 0.315-0.243 0.378-0.909 0.387-4.014 1.818-5.301 3.609-3.294 4.581-5.805 11.133-11.43 11.133h-23.454c-8.316 0-15.048-6.759-15.048-15.102v-0.27c0-0.216 0.18-0.396 0.405-0.396h13.068c0.261 0 0.45 0.234 0.432 0.495-0.099 0.846 0.063 1.719 0.468 2.511 0.774 1.575 2.385 2.556 4.122 2.556h6.471v-5.049h-6.399c-0.324 0-0.522-0.378-0.333-0.648 0.072-0.108 0.144-0.216 0.234-0.342 0.603-0.864 1.467-2.196 2.331-3.717 0.585-1.026 1.152-2.124 1.611-3.222 0.09-0.198 0.162-0.405 0.243-0.603 0.126-0.351 0.252-0.684 0.342-1.008 0.09-0.279 0.171-0.567 0.243-0.837 0.216-0.936 0.306-1.926 0.306-2.952 0-0.405-0.018-0.828-0.054-1.224-0.018-0.441-0.072-0.882-0.126-1.323-0.036-0.387-0.108-0.774-0.18-1.17-0.099-0.585-0.225-1.17-0.369-1.755l-0.054-0.225c-0.108-0.405-0.207-0.783-0.333-1.188-0.369-1.26-0.783-2.493-1.233-3.645-0.162-0.459-0.342-0.9-0.531-1.332-0.27-0.666-0.549-1.269-0.801-1.836-0.135-0.261-0.243-0.495-0.351-0.738-0.126-0.27-0.252-0.54-0.387-0.801-0.09-0.198-0.198-0.387-0.27-0.567l-0.792-1.458c-0.108-0.198 0.072-0.441 0.288-0.378l4.95 1.341h0.018 0.018l0.648 0.189 0.72 0.198 0.261 0.072v-2.934c0-1.422 1.134-2.574 2.547-2.574 0.702 0 1.341 0.288 1.791 0.756 0.459 0.468 0.747 1.107 0.747 1.818v4.365l0.531 0.144c0.036 0.018 0.081 0.036 0.117 0.063 0.126 0.09 0.315 0.234 0.549 0.414 0.189 0.144 0.387 0.324 0.621 0.513 0.477 0.387 1.053 0.882 1.674 1.449 0.162 0.144 0.324 0.288 0.477 0.441 0.801 0.747 1.701 1.62 2.565 2.592 0.243 0.279 0.477 0.549 0.72 0.846 0.234 0.297 0.495 0.585 0.711 0.873 0.297 0.387 0.603 0.792 0.882 1.215 0.126 0.198 0.279 0.405 0.396 0.603 0.36 0.531 0.666 1.08 0.963 1.629 0.126 0.252 0.252 0.531 0.36 0.801 0.333 0.738 0.594 1.485 0.756 2.241 0.054 0.162 0.09 0.333 0.108 0.495v0.036c0.054 0.216 0.072 0.45 0.09 0.693 0.072 0.765 0.036 1.539-0.126 2.313-0.072 0.324-0.162 0.63-0.27 0.963-0.117 0.315-0.225 0.639-0.369 0.954-0.279 0.639-0.603 1.287-0.99 1.881-0.126 0.225-0.279 0.459-0.423 0.684-0.162 0.234-0.333 0.459-0.477 0.675-0.207 0.279-0.423 0.567-0.648 0.828-0.198 0.27-0.396 0.54-0.621 0.783-0.306 0.369-0.603 0.711-0.918 1.044-0.18 0.216-0.378 0.441-0.585 0.639-0.198 0.225-0.405 0.423-0.585 0.603-0.315 0.315-0.567 0.549-0.783 0.756l-0.513 0.459c-0.072 0.072-0.171 0.108-0.27 0.108h-3.942v5.049h4.959c1.107 0 2.16-0.387 3.015-1.116 0.288-0.252 1.557-1.35 3.06-3.006 0.054-0.063 0.117-0.099 0.189-0.117l13.689-3.96c0.261-0.072 0.513 0.117 0.513 0.387v2.898z" fill="#fff" fill-opacity="0.87"/>
</svg>
