<?xml version="1.0" encoding="UTF-8" standalone="no"?>
<svg
   xmlns:dc="http://purl.org/dc/elements/1.1/"
   xmlns:cc="http://creativecommons.org/ns#"
   xmlns:rdf="http://www.w3.org/1999/02/22-rdf-syntax-ns#"
   xmlns:svg="http://www.w3.org/2000/svg"
   xmlns="http://www.w3.org/2000/svg"
   xmlns:sodipodi="http://sodipodi.sourceforge.net/DTD/sodipodi-0.dtd"
   xmlns:inkscape="http://www.inkscape.org/namespaces/inkscape"
   width="24"
   height="24"
   viewBox="0 0 24 24"
   id="svg2"
   version="1.1"
   inkscape:version="0.91 r13725"
   sodipodi:docname="icon_metamask.svg">
  <metadata
     id="metadata12">
    <rdf:RDF>
      <cc:Work
         rdf:about="">
        <dc:format>image/svg+xml</dc:format>
        <dc:type
           rdf:resource="http://purl.org/dc/dcmitype/StillImage" />
        <dc:title></dc:title>
      </cc:Work>
    </rdf:RDF>
  </metadata>
  <defs
     id="defs10" />
  <sodipodi:namedview
     pagecolor="#ffffff"
     bordercolor="#666666"
     borderopacity="1"
     objecttolerance="10"
     gridtolerance="10"
     guidetolerance="10"
     inkscape:pageopacity="0"
     inkscape:pageshadow="2"
     inkscape:window-width="1920"
     inkscape:window-height="1017"
     id="namedview8"
     showgrid="false"
     inkscape:zoom="19.666667"
     inkscape:cx="3.0698421"
     inkscape:cy="11.212261"
     inkscape:window-x="-8"
     inkscape:window-y="-8"
     inkscape:window-maximized="1"
     inkscape:current-layer="svg2" />
  <path
     fill="none"
     d="M0 0h24v24H0V0z"
     id="path4" />
  <path
     style="fill:#000000"
     d="M 10.010069,22.43641 C 9.8069342,22.34419 8.171825,21.204342 7.8012234,20.896603 c -0.173493,-0.144063 -0.335795,-0.26193 -0.3606713,-0.26193 -0.024889,0 -0.445467,0.113254 -0.9346418,0.251684 -0.4891749,0.138427 -1.0169213,0.287498 -1.172763,0.331272 -0.1558442,0.04378 -0.712693,0.200535 -1.2374407,0.348356 -0.5247477,0.147822 -1.0165138,0.268768 -1.0928111,0.268768 -0.2632455,0 -0.5374385,-0.177554 -0.6692279,-0.433363 C 2.3006096,21.33722 1.9793996,20.268296 1.6198721,19.026007 1.141843,17.374246 0.96618989,16.720455 0.96618989,16.592991 c 0,-0.128539 0.0827731,-0.432649 0.31525071,-1.158187 0.1733853,-0.541132 0.4730179,-1.477843 0.6658433,-2.081576 L 2.2978765,12.25553 2.1741896,12.103145 C 2.1061614,12.01933 1.9469243,11.830752 1.8203292,11.684076 1.693734,11.5374 1.5626012,11.357386 1.5289214,11.284048 1.460549,11.135159 1.4484397,10.918461 1.5007989,10.780729 1.5311403,10.700917 1.5231701,10.677143 1.4358231,10.586879 1.2413021,10.38588 1.1806529,10.090126 1.2834857,9.8440139 1.3308002,9.7307663 1.329822,9.7183209 1.2684147,9.6529501 1.0325524,9.4018863 1.0482213,8.9437349 1.3016272,8.6818905 L 1.40033,8.5798962 1.251851,7.8651698 C 1.1701919,7.4720667 1.035006,6.8213298 0.95144578,6.4190825 0.86788467,6.0168353 0.79951871,5.5993776 0.79951871,5.4914012 c 0,-0.1624316 0.08386,-0.4534074 0.48576309,-1.6854719 C 1.5524518,2.9869018 1.8007712,2.2492807 1.8371048,2.1667748 1.9658266,1.8744803 2.2127983,1.7021855 2.5050294,1.700807 2.6880686,1.6999085 2.5379524,1.6452867 8.869247,4.0181407 l 0.4858853,0.1821009 2.6784697,0 2.678466,0 0.485889,-0.1821009 c 6.331292,-2.3728549 6.181175,-2.3181933 6.364211,-2.3173337 0.292235,0.00154 0.539207,0.1736733 0.667928,0.4659678 0.03634,0.082501 0.284656,0.820127 0.551823,1.6391545 0.401903,1.2320645 0.48576,1.5230403 0.48576,1.6854719 0,0.1079764 -0.06836,0.5254341 -0.151923,0.9276813 -0.08356,0.4022473 -0.218745,1.0529842 -0.300409,1.4460873 l -0.148479,0.7147264 0.0987,0.1019943 c 0.2534,0.2618444 0.269071,0.7199958 0.03321,0.9710596 -0.06142,0.065374 -0.06239,0.077819 -0.01507,0.1910638 0.102831,0.2461121 0.04219,0.5418661 -0.152336,0.7428651 -0.08736,0.09027 -0.09532,0.114038 -0.06498,0.19385 0.05237,0.137732 0.04026,0.35443 -0.02812,0.503319 -0.03367,0.07333 -0.16481,0.253352 -0.291408,0.400028 -0.126591,0.146676 -0.28583,0.335256 -0.353858,0.419069 l -0.123685,0.152385 0.350592,1.097698 c 0.192828,0.603733 0.492455,1.540444 0.665843,2.081576 0.232475,0.725538 0.31525,1.029648 0.31525,1.158187 0,0.127464 -0.175652,0.781255 -0.653681,2.433016 -0.359528,1.242289 -0.680734,2.311211 -0.713796,2.375383 -0.131786,0.255809 -0.405983,0.433363 -0.669228,0.433363 -0.0763,0 -0.568064,-0.120946 -1.092811,-0.268768 -0.524748,-0.147821 -1.081596,-0.304578 -1.237438,-0.348356 -0.155848,-0.04378 -0.68359,-0.192845 -1.172765,-0.331272 -0.489176,-0.13843 -0.909766,-0.251684 -0.934643,-0.251684 -0.02486,0 -0.187179,0.117867 -0.360672,0.26193 -0.370601,0.307739 -2.005709,1.447588 -2.208844,1.539807 C 13.92462,22.49657 13.815445,22.5 12.033605,22.5 c -1.781844,0 -1.891018,-0.0034 -2.023525,-0.06359 z m 3.597655,-1.310039 c 0.02502,-0.02292 0.07482,-0.05827 0.110722,-0.07858 0.118799,-0.06718 0.08746,-0.126721 -0.116591,-0.22144 l -0.197482,-0.09167 -1.370778,0 -1.370782,0 -0.197483,0.09167 c -0.204043,0.09472 -0.235388,0.154259 -0.11659,0.22144 0.03589,0.0203 0.08572,0.05566 0.110722,0.07858 0.03499,0.03207 0.397662,0.04168 1.574133,0.04168 1.176468,0 1.539146,-0.0096 1.574129,-0.04168 z m -4.1742258,-1.883462 7.24e-5,-1.125073 0.1764887,-0.09221 c 0.09707,-0.05072 0.3027782,-0.174348 0.4571277,-0.27474 0.438305,-0.285066 0.424586,-0.28309 1.96641,-0.28309 1.541825,0 1.528106,-0.0021 1.966399,0.28309 0.154351,0.100392 0.360058,0.224022 0.457126,0.27474 l 0.176491,0.09221 7.2e-5,1.125073 c 3.3e-5,0.643981 0.01291,1.12508 0.03006,1.12508 0.04151,0 0.384154,-0.232219 0.39782,-0.269616 0.0061,-0.01671 0.02405,-0.03041 0.03986,-0.03041 0.01581,0 0.250829,-0.176863 0.522256,-0.393028 0.27144,-0.216158 0.54602,-0.431987 0.610193,-0.479613 l 0.116674,-0.08659 0.750049,0.212777 c 0.412529,0.117031 0.885059,0.251794 1.050072,0.299477 0.165011,0.04769 0.345021,0.09836 0.400028,0.11261 0.055,0.01425 0.482531,0.134775 0.950059,0.267828 1.122935,0.319574 1.099529,0.313801 1.133623,0.279475 0.01618,-0.01627 0.113718,-0.322104 0.216794,-0.679628 0.103077,-0.357526 0.285302,-0.987569 0.404948,-1.400094 0.404299,-1.394025 0.444784,-1.538664 0.444784,-1.589085 0,-0.02768 -0.231899,-0.780274 -0.515331,-1.672445 -0.283433,-0.892171 -0.562901,-1.772289 -0.621038,-1.955819 L 20.458827,12.65014 19.154737,12.270673 C 18.437487,12.061966 17.610632,11.820066 17.31728,11.733114 17.023925,11.646168 16.698056,11.550506 16.59312,11.520537 16.457245,11.48174 16.335898,11.411066 16.171532,11.275039 15.804244,10.971074 15.353298,10.587395 14.853148,10.153314 14.597951,9.9318265 14.2664,9.6456039 14.116369,9.5172625 13.082082,8.6324837 12.999535,8.5355996 13.001057,8.2081671 c 0.0016,-0.3018734 0.07443,-0.3951157 0.637655,-0.8141185 0.635479,-0.4727607 1.08959,-0.8068403 1.328413,-0.9772838 0.100837,-0.071968 0.190844,-0.1403285 0.200012,-0.1519117 0.0091,-0.011593 0.219181,-0.1695957 0.466696,-0.3511432 0.695335,-0.5100145 1.434888,-1.0574094 1.512925,-1.1198231 0.07341,-0.058708 -1.479443,0.5060474 -1.829611,0.6654149 l -0.200014,0.091032 -3.083537,0 -3.0835413,0 -0.2000141,-0.091032 C 8.3998764,5.2999342 6.84702,4.7351749 6.9204299,4.7938868 c 0.078036,0.062413 0.8175901,0.6098086 1.5129253,1.1198231 0.2475169,0.1815475 0.4575292,0.3395637 0.4666977,0.3511432 0.00916,0.011593 0.099173,0.079938 0.2000115,0.1519117 0.2388212,0.1704435 0.6929326,0.5045231 1.3284146,0.9772838 0.56322,0.4190028 0.63625,0.5122451 0.637652,0.8141185 0.0016,0.3274325 -0.08102,0.4243166 -1.1153125,1.3090954 -0.1500305,0.1283414 -0.4815813,0.414564 -0.7367792,0.6360515 -0.5001493,0.434081 -0.951095,0.81776 -1.3183834,1.121725 -0.1643662,0.136027 -0.2857137,0.206693 -0.4215879,0.245498 -0.104936,0.02997 -0.4308053,0.125628 -0.7241595,0.212577 -0.2933524,0.08695 -1.1202097,0.328852 -1.8374586,0.537558 l -1.3040877,0.379467 -0.1057086,0.333688 c -0.058147,0.18353 -0.3376073,1.063648 -0.6210412,1.955819 -0.2834313,0.892171 -0.5153301,1.644771 -0.5153301,1.672445 0,0.05042 0.040485,0.19506 0.4447868,1.589085 0.1196429,0.412525 0.3018669,1.042568 0.4049462,1.400094 0.1030756,0.357524 0.2006336,0.663353 0.2167933,0.679628 0.034091,0.03433 0.010696,0.04009 1.1336225,-0.279475 0.4675301,-0.133053 0.8950585,-0.253576 0.9500616,-0.267828 0.055004,-0.01425 0.2350146,-0.06493 0.4000282,-0.11261 0.1650102,-0.04769 0.6375398,-0.182446 1.0500705,-0.299477 l 0.7500475,-0.212777 0.1166748,0.08659 c 0.06417,0.04762 0.3387522,0.263455 0.6101809,0.479613 0.2714251,0.216165 0.5064432,0.393028 0.5222552,0.393028 0.015814,0 0.033756,0.01368 0.03986,0.03041 0.013658,0.03739 0.3563075,0.269616 0.39782,0.269616 0.017163,0 0.030016,-0.481099 0.030061,-1.12508 z M 9.3000766,15.819661 C 8.9242183,15.705418 8.4216842,15.554597 8.1833367,15.484503 7.6408144,15.324954 7.5527428,15.280988 7.357461,15.072219 7.2121964,14.916919 7.1999394,14.890563 7.1999394,14.733554 c 0,-0.100704 0.029471,-0.238801 0.072176,-0.338033 l 0.072176,-0.167776 0.6862111,-0.333055 c 1.4625269,-0.709847 1.4773244,-0.714125 1.8456699,-0.533503 0.2158686,0.105857 0.1670596,0.02774 0.6599746,1.056403 0.433279,0.904216 0.413544,0.844069 0.349383,1.064775 -0.06372,0.219175 -0.216785,0.405805 -0.401748,0.48983 -0.225656,0.102516 -0.432119,0.07591 -1.1836981,-0.152534 z m 4.2833344,0.152534 c -0.184962,-0.08402 -0.338031,-0.270655 -0.401747,-0.48983 -0.06416,-0.220706 -0.08389,-0.160559 0.349382,-1.064775 0.492916,-1.028674 0.444108,-0.950546 0.659976,-1.056403 0.368346,-0.180622 0.383145,-0.176344 1.845668,0.533503 l 0.686211,0.333055 0.07217,0.167776 c 0.04269,0.09923 0.07217,0.237329 0.07217,0.338033 0,0.156974 -0.01228,0.183381 -0.157295,0.338419 -0.230662,0.246594 -0.12714,0.206008 -1.767401,0.692885 -0.970879,0.288185 -1.128314,0.312201 -1.359144,0.207337 z M 4.3777565,10.997562 C 4.9490579,10.830826 5.5439956,10.657309 5.6998372,10.611968 6.7547296,10.305063 7.0214351,10.225057 7.0585259,10.204392 7.1008498,10.180816 7.5622347,9.7913766 8.6973398,8.8211475 9.0380121,8.5299552 9.3211136,8.2880727 9.326451,8.2836301 9.3373195,8.2745549 7.4505983,6.8724808 3.9163844,4.2632611 2.9321665,3.5366363 2.8656492,3.4892349 2.8521794,3.5048947 2.8464727,3.511505 2.772993,3.7268796 2.6887896,3.9835623 2.6045851,4.2402452 2.4600771,4.6792208 2.3676499,4.9590609 2.2752253,5.2389 2.1996057,5.5004592 2.1996057,5.5403033 c 0,0.039843 0.021176,0.1634043 0.04707,0.274586 0.056326,0.2418581 0.125397,0.5669521 0.2023019,0.9521918 0.07368,0.3690556 0.160592,0.7840924 0.2722584,1.3000855 0.1023066,0.4727424 0.1328943,0.8247542 0.083878,0.9653526 -0.028031,0.080409 -0.022317,0.1057928 0.035251,0.1569892 0.1752935,0.1558469 0.2404959,0.5184755 0.1426325,0.7932464 -0.044787,0.1257442 -0.043021,0.1374292 0.0365,0.2416942 0.182293,0.238999 0.2233326,0.466992 0.1272718,0.707066 -0.052206,0.130479 -0.05167,0.133709 0.041672,0.250692 0.052007,0.06517 0.1071641,0.118506 0.1225694,0.11851 0.015397,0 0.495435,-0.13642 1.0667364,-0.303155 z m 16.5009785,0.184645 c 0.09334,-0.116983 0.09388,-0.120213 0.04168,-0.25069 -0.09606,-0.240076 -0.05502,-0.468069 0.127272,-0.707068 0.07952,-0.104265 0.08129,-0.11595 0.03651,-0.2416942 -0.09787,-0.2747709 -0.03266,-0.6373995 0.142629,-0.7932464 0.05759,-0.0512 0.06328,-0.076579 0.03525,-0.1569892 -0.049,-0.1405984 -0.01843,-0.4926102 0.08388,-0.9653526 0.111666,-0.5159931 0.198578,-0.9310299 0.272255,-1.3000855 0.07691,-0.3852397 0.145978,-0.7103337 0.202305,-0.9521918 0.02587,-0.1111817 0.04708,-0.2347455 0.04708,-0.274586 0,-0.039843 -0.07563,-0.3014033 -0.168045,-0.5812424 -0.09243,-0.2798401 -0.236937,-0.7188157 -0.321137,-0.9754986 -0.0842,-0.2566827 -0.157727,-0.472084 -0.163392,-0.4786676 -0.0157,-0.018241 -0.04736,0.00489 -3.114343,2.2737444 -3.315686,2.4528302 -3.376407,2.4991266 -3.326342,2.5362083 0.04373,0.032379 0.479269,0.4038087 1.759569,1.5005279 0.525309,0.4499837 0.195438,0.3211157 2.650179,1.0353397 0.421696,0.122695 0.931728,0.272834 1.133407,0.333642 0.201682,0.06081 0.389193,0.111865 0.416694,0.11346 0.0275,0.0015 0.09255,-0.05043 0.144563,-0.11561 z"
     id="path4147-3"
     inkscape:connector-curvature="0" />
</svg>
