<?xml version="1.0" encoding="UTF-8" standalone="no"?>
<svg
   xmlns:dc="http://purl.org/dc/elements/1.1/"
   xmlns:cc="http://creativecommons.org/ns#"
   xmlns:rdf="http://www.w3.org/1999/02/22-rdf-syntax-ns#"
   xmlns:svg="http://www.w3.org/2000/svg"
   xmlns="http://www.w3.org/2000/svg"
   xmlns:sodipodi="http://sodipodi.sourceforge.net/DTD/sodipodi-0.dtd"
   xmlns:inkscape="http://www.inkscape.org/namespaces/inkscape"
   width="24"
   height="24"
   viewBox="0 0 24 24"
   id="svg2"
   version="1.1"
   inkscape:version="0.91 r13725"
   sodipodi:docname="icon_tag_c.svg">
  <metadata
     id="metadata16">
    <rdf:RDF>
      <cc:Work
         rdf:about="">
        <dc:format>image/svg+xml</dc:format>
        <dc:type
           rdf:resource="http://purl.org/dc/dcmitype/StillImage" />
      </cc:Work>
    </rdf:RDF>
  </metadata>
  <defs
     id="defs14" />
  <sodipodi:namedview
     pagecolor="#ffffff"
     bordercolor="#666666"
     borderopacity="1"
     objecttolerance="10"
     gridtolerance="10"
     guidetolerance="10"
     inkscape:pageopacity="0"
     inkscape:pageshadow="2"
     inkscape:window-width="1920"
     inkscape:window-height="1017"
     id="namedview12"
     showgrid="false"
     inkscape:zoom="23.106711"
     inkscape:cx="13.099937"
     inkscape:cy="14.784175"
     inkscape:window-x="-8"
     inkscape:window-y="-8"
     inkscape:window-maximized="1"
     inkscape:current-layer="svg2" />
  <path
     fill="none"
     d="M0 0h24v24H0V0z"
     id="path4" />
  <path
     d="m 11.2,3.6 -7.6,0 0,7.6 L 13,20.61 20.6,13 Z M 6.5,8 C 5.67,8 5,7.33 5,6.5 5,5.67 5.67,5 6.5,5 7.33,5 8,5.67 8,6.5 8,7.33 7.33,8 6.5,8 Z"
     id="path6"
     style="opacity:1;fill:#ffffff;fill-opacity:1"
     inkscape:connector-curvature="0"
     sodipodi:nodetypes="ccccccsssss" />
  <path
     d="M 12.41,2.58 C 12.05,2.22 11.55,2 11,2 L 4,2 C 2.9,2 2,2.9 2,4 l 0,7 c 0,0.55 0.22,1.05 0.59,1.42 l 9,9 C 11.95,21.78 12.45,22 13,22 c 0.55,0 1.05,-0.22 1.41,-0.59 l 7,-7 C 21.78,14.05 22,13.55 22,13 22,12.45 21.77,11.94 21.41,11.58 Z M 13,20.61 3.6,11.2 l 0,-7.6 7.6,0 0,-0.01 9.4,9.4 z"
     id="path8"
     style="stroke-width:0.2;stroke-miterlimit:4;stroke-dasharray:none"
     inkscape:connector-curvature="0"
     sodipodi:nodetypes="ssssssssccsssccccccc" />
  <circle
     cx="6.5"
     cy="6.5"
     r="1.2551856"
     id="circle10" />
  <path
     inkscape:connector-curvature="0"
     style="fill:#24d7d0"
     d="m 13.638147,7.3727092 0,0.5632219 -0.607095,-0.08184 0,-0.4813842 c 0.09081,0.052948 0.19121,0.081828 0.301156,0.081828 0.109951,0 0.215112,-0.02888 0.305939,-0.081828 z"
     id="path28" />
  <path
     inkscape:connector-curvature="0"
     style="fill:#24d7d0"
     d="m 13.618354,13.31785 0,1.39602 -0.607095,0 0,-1.400834 c 0.18643,-0.0097 0.391981,-0.0097 0.607095,0.0047 z"
     id="path30" />
  <path
     inkscape:connector-curvature="0"
     style="fill:#14869f"
     d="m 13.919487,6.8480053 c 0,0.2262497 -0.119503,0.423621 -0.301158,0.5295236 -0.09081,0.052948 -0.191213,0.08184 -0.301159,0.08184 -0.109951,0 -0.215112,-0.02888 -0.301156,-0.08184 -0.181649,-0.1058968 -0.301156,-0.3032739 -0.301156,-0.5295236 0,-0.336971 0.272475,-0.6113602 0.607092,-0.6113602 0.33462,0 0.597537,0.2743892 0.597537,0.6113602 z"
     id="path32" />
  <path
     inkscape:connector-curvature="0"
     style="fill:#1eb6d1"
     d="m 11.788155,10.198425 0,2.647625 c 0,0.03851 -0.02869,0.0674 -0.06692,0.0674 l -2.4427204,0 c -0.047805,0 -0.081263,-0.04814 -0.062144,-0.09628 L 10.459239,9.6111442 c 0.01433,-0.038517 0.05736,-0.052948 0.09082,-0.038517 l 1.199849,0.5632208 c 0.0239,0.0097 0.03824,0.03852 0.03824,0.06259 z"
     id="path34" />
  <path
     inkscape:connector-curvature="0"
     style="fill:#6bd9fc"
     d="m 14.273909,11.007161 c -0.157747,0.370667 -0.382419,0.717266 -0.635773,1.034993 -0.186435,0.231068 -0.391984,0.447696 -0.607098,0.645067 -0.252757,0.236655 -0.509628,0.448468 -0.75916,0.63157 -0.03224,0.02367 -0.08351,0.0092 -0.06305,-0.02507 l 0,0 c 0.119502,-0.255138 0.35374,-0.953115 0.310718,-2.459868 -0.04779,-1.6319009 -0.616654,-2.6909519 -0.836547,-3.0375478 -0.03346,-0.048138 0.0097,-0.1107205 0.06691,-0.1059089 l 1.281112,0.1684854 0.607096,0.081828 0.879569,0.1155312 0,0 c 0.01033,0 0.01577,0.00899 0.01882,0.018845 0.04625,0.1494324 0.393661,1.3854063 -0.262606,2.9320441 z"
     id="path36" />
  <path
     inkscape:connector-curvature="0"
     style="fill:#1eb6d1"
     d="m 16.200373,11.440389 c 0,2.1566 -0.760064,2.363598 -0.951274,2.517644 -0.02869,0.01925 -0.06691,0.01925 -0.09081,-0.0047 -0.129065,-0.125163 -0.468465,-0.495834 -1.218968,-0.60174 -0.100398,-0.01443 -0.200771,-0.02408 -0.30116,-0.0337 -0.210328,-0.01444 -0.415879,-0.01444 -0.607091,-0.0097 -0.325059,0.01443 -0.592753,0.05295 -0.750501,0.07703 l 0,0 c -0.04163,0.007 -0.03881,-0.04905 -0.0047,-0.07409 0.0797,-0.05892 0.159401,-0.120865 0.239104,-0.185852 0.02869,-0.02408 0.05736,-0.04333 0.08603,-0.0674 0.143409,-0.115531 0.286817,-0.240696 0.430224,-0.375442 0.02869,-0.02408 0.05736,-0.05295 0.08127,-0.07702 0.0239,-0.02408 0.04779,-0.04814 0.07648,-0.07221 0.01055,-0.01067 0.02111,-0.01982 0.03087,-0.0291 0.01557,-0.01487 0.02871,-0.03026 0.04324,-0.04612 l 0,0 c 0.01453,-0.01588 0.02916,-0.03352 0.04424,-0.04887 0.02111,-0.02149 0.04221,-0.04366 0.06332,-0.06849 0.0239,-0.02408 0.04301,-0.04814 0.06691,-0.07221 0.0239,-0.02408 0.04781,-0.05295 0.06691,-0.07702 0.04301,-0.04814 0.08605,-0.101097 0.129065,-0.154046 0.01912,-0.02889 0.04301,-0.05295 0.06213,-0.08182 0.01912,-0.02889 0.04302,-0.05295 0.06215,-0.08184 0.01912,-0.02889 0.03825,-0.05295 0.05735,-0.08184 0.01912,-0.02889 0.03823,-0.05295 0.05736,-0.08184 0.0097,-0.01443 0.0239,-0.0337 0.03346,-0.04814 0.01434,-0.01925 0.0239,-0.03852 0.03824,-0.05777 0.02869,-0.04333 0.05735,-0.08664 0.08127,-0.129975 0.0097,-0.01927 0.0239,-0.03852 0.03346,-0.05778 l 0,0 c 0.01976,-0.0398 0.04572,-0.07645 0.06504,-0.11648 6.24e-4,-0.0012 0.0012,-0.0027 0.0019,-0.0039 0.03825,-0.0674 0.07169,-0.139605 0.105174,-0.207 0.01435,-0.02889 0.02869,-0.05776 0.03825,-0.08664 0.664774,-1.5666928 0.299675,-2.8146169 0.256654,-2.9416465 -0.0015,-0.00463 0.0015,-0.00911 0.0049,-0.00571 l 0,0 c 5.15e-4,5.151e-4 0.0014,0.00134 0.0021,0.0017 0.157192,0.081026 1.667546,1.4133213 1.667546,3.3837495 z"
     id="path38" />
  <path
     inkscape:connector-curvature="0"
     style="fill:#14869f"
     d="m 18.934666,13.519996 c 0,0.05778 -0.03348,0.11553 -0.09082,0.144418 l 0,0 c -0.673433,0.325622 -1.093321,0.993628 -1.340464,1.699624 -0.111705,0.319124 -0.255138,0.622944 -0.426376,0.908126 -0.111624,0.185894 -0.325758,0.303419 -0.522912,0.21317 l 0,0 -0.305942,-0.134789 c -0.229436,-0.101087 -0.478042,-0.101087 -0.707476,0 l -0.305943,0.134789 c -0.229435,0.101098 -0.47804,0.101098 -0.707475,0 l -0.305943,-0.134789 c -0.229434,-0.101087 -0.478039,-0.101087 -0.707475,0 l -0.305941,0.134789 c -0.229436,0.101098 -0.478041,0.101098 -0.707476,0 l -0.305941,-0.134789 c -0.229451,-0.101087 -0.478027,-0.101087 -0.70748,0 l -0.305938,0.134789 c -0.229451,0.101098 -0.482806,0.101098 -0.707479,0 l -0.305939,-0.134789 c -0.2294524,-0.101087 -0.4828067,-0.101087 -0.7074793,0 l -0.2820366,0.125162 0,0 c -0.133791,0.05895 -0.2850776,-0.008 -0.3643315,-0.13071 -0.489433,-0.758766 -0.7638062,-1.653473 -0.7638062,-2.613191 0,-0.0674 0,-0.134788 0.00475,-0.202183 0,-0.03852 0.033459,-0.06739 0.066925,-0.06739 l 2.5909046,0 c 0.03825,0 0.06691,0.02889 0.06691,0.06739 l 0,0.332157 c 0,0.466946 0.37764,0.847242 0.841325,0.847242 l 3.680807,0 c 0.406347,0 0.740956,-0.288832 0.822192,-0.669127 0.0047,-0.02889 0.03348,-0.05295 0.06691,-0.05295 l 0,0 c 0.818025,0 1.625517,-0.184658 2.362219,-0.540205 l 0.147426,-0.07117 c 0.05275,-0.02654 0.114495,-0.01878 0.160366,0.01381 0.04208,0.02992 0.07388,0.07899 0.07388,0.130613 l 0,0 z"
     id="path40" />
</svg>
