<?xml version="1.0" encoding="UTF-8" standalone="no"?>
<svg
   xmlns:dc="http://purl.org/dc/elements/1.1/"
   xmlns:cc="http://creativecommons.org/ns#"
   xmlns:rdf="http://www.w3.org/1999/02/22-rdf-syntax-ns#"
   xmlns:svg="http://www.w3.org/2000/svg"
   xmlns="http://www.w3.org/2000/svg"
   xmlns:sodipodi="http://sodipodi.sourceforge.net/DTD/sodipodi-0.dtd"
   xmlns:inkscape="http://www.inkscape.org/namespaces/inkscape"
   width="24"
   height="24"
   viewBox="0 0 24 24"
   id="svg2"
   version="1.1"
   inkscape:version="0.91 r13725"
   sodipodi:docname="icon_wallet_w.svg">
  <metadata
     id="metadata16">
    <rdf:RDF>
      <cc:Work
         rdf:about="">
        <dc:format>image/svg+xml</dc:format>
        <dc:type
           rdf:resource="http://purl.org/dc/dcmitype/StillImage" />
        <dc:title></dc:title>
      </cc:Work>
    </rdf:RDF>
  </metadata>
  <defs
     id="defs14" />
  <sodipodi:namedview
     pagecolor="#ffffff"
     bordercolor="#666666"
     borderopacity="1"
     objecttolerance="10"
     gridtolerance="10"
     guidetolerance="10"
     inkscape:pageopacity="0"
     inkscape:pageshadow="2"
     inkscape:window-width="1920"
     inkscape:window-height="1017"
     id="namedview12"
     showgrid="false"
     inkscape:zoom="9.8333333"
     inkscape:cx="12"
     inkscape:cy="12"
     inkscape:window-x="-8"
     inkscape:window-y="-8"
     inkscape:window-maximized="1"
     inkscape:current-layer="svg2" />
  <path
     fill="none"
     d="M0 0h24v24H0V0z"
     id="path4" />
  <path
     opacity=".3"
     d="M13 17c-1.1 0-2-.9-2-2V9c0-1.1.9-2 2-2h6V5H5v14h14v-2h-6z"
     id="path6"
     style="fill:#ffffff;fill-opacity:1" />
  <path
     d="M21 7.28V5c0-1.1-.9-2-2-2H5c-1.11 0-2 .9-2 2v14c0 1.1.89 2 2 2h14c1.1 0 2-.9 2-2v-2.28c.59-.35 1-.98 1-1.72V9c0-.74-.41-1.38-1-1.72zM20 9v6h-7V9h7zM5 19V5h14v2h-6c-1.1 0-2 .9-2 2v6c0 1.1.9 2 2 2h6v2H5z"
     id="path8"
     style="fill:#ffffff;fill-opacity:1" />
  <circle
     cx="16"
     cy="12"
     r="1.5"
     id="circle10"
     style="fill:#ffffff;fill-opacity:1" />
</svg>
