<?xml version="1.0" encoding="UTF-8" standalone="no"?>
<svg
   xmlns:dc="http://purl.org/dc/elements/1.1/"
   xmlns:cc="http://creativecommons.org/ns#"
   xmlns:rdf="http://www.w3.org/1999/02/22-rdf-syntax-ns#"
   xmlns:svg="http://www.w3.org/2000/svg"
   xmlns="http://www.w3.org/2000/svg"
   xmlns:sodipodi="http://sodipodi.sourceforge.net/DTD/sodipodi-0.dtd"
   xmlns:inkscape="http://www.inkscape.org/namespaces/inkscape"
   height="24px"
   viewBox="0 0 24 24"
   width="24px"
   fill="#000000"
   id="svg2"
   version="1.1"
   inkscape:version="0.91 r13725"
   sodipodi:docname="icon_copyex_w.svg">
  <metadata
     id="metadata12">
    <rdf:RDF>
      <cc:Work
         rdf:about="">
        <dc:format>image/svg+xml</dc:format>
        <dc:type
           rdf:resource="http://purl.org/dc/dcmitype/StillImage" />
        <dc:title></dc:title>
      </cc:Work>
    </rdf:RDF>
  </metadata>
  <defs
     id="defs10" />
  <sodipodi:namedview
     pagecolor="#ffffff"
     bordercolor="#666666"
     borderopacity="1"
     objecttolerance="10"
     gridtolerance="10"
     guidetolerance="10"
     inkscape:pageopacity="0"
     inkscape:pageshadow="2"
     inkscape:window-width="1920"
     inkscape:window-height="1017"
     id="namedview8"
     showgrid="false"
     inkscape:zoom="19.666666"
     inkscape:cx="10.143483"
     inkscape:cy="8.4858083"
     inkscape:window-x="-8"
     inkscape:window-y="-8"
     inkscape:window-maximized="1"
     inkscape:current-layer="svg2" />
  <path
     d="M0 0h24v24H0V0z"
     fill="none"
     id="path4" />
  <path
     d="M 4 1 C 2.9 1 2 1.9 2 3 L 2 17 L 4 17 L 4 3 L 16 3 L 16 1 L 4 1 z M 8 5 C 6.9 5 6 5.9 6 7 L 6 21 C 6 22.1 6.9 23 8 23 L 19 23 C 20.1 23 21 22.1 21 21 L 21 12.943359 L 19 14.943359 L 19 21 L 8 21 L 8 7 L 18.199219 7 L 18.199219 7.015625 L 19.619141 5.5957031 C 19.256031 5.2286146 18.753169 5 18.199219 5 L 8 5 z M 21.152344 6.9082031 L 14.003906 14.056641 L 11.423828 11.486328 L 10.003906 12.896484 L 14.003906 16.886719 L 22.5625 8.328125 L 21.152344 6.9082031 z "
     id="path6"
     style="fill:#ffffff;fill-opacity:1" />
</svg>
