<?xml version="1.0" encoding="UTF-8" standalone="no"?>
<svg
   xmlns:dc="http://purl.org/dc/elements/1.1/"
   xmlns:cc="http://creativecommons.org/ns#"
   xmlns:rdf="http://www.w3.org/1999/02/22-rdf-syntax-ns#"
   xmlns:svg="http://www.w3.org/2000/svg"
   xmlns="http://www.w3.org/2000/svg"
   xmlns:sodipodi="http://sodipodi.sourceforge.net/DTD/sodipodi-0.dtd"
   xmlns:inkscape="http://www.inkscape.org/namespaces/inkscape"
   width="90"
   height="90"
   viewBox="0 0 90 90"
   fill="none"
   id="svg2"
   version="1.1"
   inkscape:version="0.91 r13725"
   sodipodi:docname="icon_market.svg">
  <metadata
     id="metadata10">
    <rdf:RDF>
      <cc:Work
         rdf:about="">
        <dc:format>image/svg+xml</dc:format>
        <dc:type
           rdf:resource="http://purl.org/dc/dcmitype/StillImage" />
      </cc:Work>
    </rdf:RDF>
  </metadata>
  <defs
     id="defs8" />
  <sodipodi:namedview
     pagecolor="#ffffff"
     bordercolor="#666666"
     borderopacity="1"
     objecttolerance="10"
     gridtolerance="10"
     guidetolerance="10"
     inkscape:pageopacity="0"
     inkscape:pageshadow="2"
     inkscape:window-width="1920"
     inkscape:window-height="1017"
     id="namedview6"
     showgrid="false"
     inkscape:zoom="2.6222222"
     inkscape:cx="45"
     inkscape:cy="45"
     inkscape:window-x="-8"
     inkscape:window-y="-8"
     inkscape:window-maximized="1"
     inkscape:current-layer="svg2" />
  <path
     d="M 45,6.8644068 C 23.941525,6.8644068 6.8644068,23.941525 6.8644068,45 6.8644068,66.058475 23.941525,83.135593 45,83.135593 66.058475,83.135593 83.135593,66.058475 83.135593,45 83.135593,23.941525 66.066102,6.8644068 45,6.8644068 Z m -19.319492,39.4169492 0.16017,-0.259322 9.922881,-15.521187 c 0.144916,-0.221186 0.488136,-0.198305 0.594916,0.04576 1.655084,3.714407 3.088983,8.336441 2.417796,11.211865 -0.282203,1.182203 -1.067796,2.783898 -1.952542,4.263559 C 36.709322,46.235593 36.587288,46.449153 36.45,46.655085 36.388983,46.74661 36.282203,46.8 36.167797,46.8 l -10.197458,0 c -0.274576,0 -0.434746,-0.297458 -0.289831,-0.518644 z m 44.214407,5.338983 c 0,0.144915 -0.0839,0.266949 -0.205932,0.320339 -0.770339,0.327966 -3.401695,1.540678 -4.492373,3.058475 -2.791525,3.882203 -4.919491,9.434745 -9.686441,9.434745 l -19.876271,0 c -7.047457,0 -12.752542,-5.727966 -12.752542,-12.798305 l 0,-0.228813 c 0,-0.183051 0.152542,-0.335594 0.34322,-0.335594 l 11.074577,0 c 0.221186,0 0.381355,0.198306 0.366101,0.419492 -0.0839,0.716949 0.05339,1.45678 0.39661,2.127966 0.655933,1.334746 2.021187,2.166102 3.493221,2.166102 l 5.483898,0 0,-4.278814 -5.422881,0 c -0.274577,0 -0.442373,-0.320339 -0.282204,-0.549152 0.06102,-0.09153 0.122034,-0.183051 0.198305,-0.289831 0.511017,-0.732203 1.243221,-1.861017 1.975424,-3.15 0.495763,-0.869491 0.976271,-1.8 1.365254,-2.730508 0.07627,-0.167797 0.137288,-0.343221 0.205933,-0.511017 0.106779,-0.297458 0.213559,-0.579661 0.28983,-0.854238 0.07627,-0.23644 0.144915,-0.480508 0.205932,-0.709322 0.183051,-0.79322 0.259322,-1.632203 0.259322,-2.501695 0,-0.34322 -0.01525,-0.701694 -0.04576,-1.037288 -0.01526,-0.373728 -0.06102,-0.747457 -0.10678,-1.121186 -0.03051,-0.327966 -0.09153,-0.655932 -0.152542,-0.991526 -0.0839,-0.495762 -0.190678,-0.991525 -0.312712,-1.487288 l -0.04576,-0.190678 c -0.09152,-0.34322 -0.175424,-0.663559 -0.282203,-1.006779 -0.312712,-1.067797 -0.66356,-2.112712 -1.044916,-3.088983 -0.137288,-0.388983 -0.28983,-0.762712 -0.45,-1.128814 C 40.164407,29.59322 39.927966,29.082203 39.714407,28.601695 39.6,28.380508 39.508475,28.182203 39.416949,27.976271 39.310169,27.747458 39.20339,27.518644 39.088983,27.297458 39.012712,27.129661 38.921186,26.969492 38.860169,26.816949 l -0.671186,-1.235593 c -0.09152,-0.167797 0.06102,-0.373729 0.244068,-0.320339 l 4.194915,1.136441 0.01525,0 c 0.0076,0 0.0076,0 0.01526,0 l 0.549152,0.160169 0.61017,0.167797 0.221186,0.06102 0,-2.486441 c 0,-1.205085 0.961017,-2.181356 2.158475,-2.181356 0.594915,0 1.13644,0.244068 1.517796,0.640678 0.388983,0.39661 0.633051,0.938136 0.633051,1.540678 l 0,3.699153 0.45,0.122033 c 0.03051,0.01525 0.06864,0.03051 0.09915,0.05339 0.106779,0.07627 0.266949,0.198305 0.465254,0.350848 0.160169,0.122034 0.327966,0.274576 0.526271,0.434745 0.404237,0.327967 0.892373,0.747458 1.418644,1.227967 0.137288,0.122033 0.274576,0.244067 0.404237,0.373728 0.678814,0.633051 1.441526,1.372882 2.173729,2.196611 0.205932,0.23644 0.404238,0.465254 0.61017,0.716949 0.198305,0.251695 0.419491,0.495762 0.602542,0.73983 0.251695,0.327966 0.511017,0.671187 0.747458,1.029661 0.106779,0.167797 0.23644,0.343221 0.335593,0.511017 0.305085,0.45 0.564407,0.915254 0.816102,1.380509 0.106779,0.213559 0.213559,0.45 0.305084,0.678813 0.282204,0.625424 0.50339,1.258475 0.640678,1.899153 0.04576,0.137288 0.07627,0.282203 0.09153,0.419491 l 0,0.03051 c 0.04576,0.183051 0.06102,0.381356 0.07627,0.587288 0.06102,0.648305 0.03051,1.304237 -0.10678,1.960169 -0.06102,0.274577 -0.137288,0.533899 -0.228813,0.816102 -0.09915,0.266949 -0.190678,0.541526 -0.312712,0.808475 -0.236441,0.541525 -0.511017,1.090678 -0.838983,1.594067 -0.10678,0.190678 -0.236441,0.388984 -0.358475,0.579661 -0.137288,0.198306 -0.282203,0.388984 -0.404237,0.572034 -0.175424,0.236441 -0.358475,0.480509 -0.549153,0.701695 -0.167796,0.228814 -0.335593,0.457627 -0.526271,0.66356 -0.259322,0.312711 -0.511017,0.602542 -0.777966,0.884745 -0.152542,0.183051 -0.320339,0.373729 -0.495763,0.541526 -0.167796,0.190678 -0.34322,0.358474 -0.495762,0.511017 -0.266949,0.266949 -0.480509,0.465254 -0.66356,0.640678 l -0.434745,0.388983 c -0.06102,0.06102 -0.144916,0.09153 -0.228814,0.09153 l -3.340678,0 0,4.278814 4.202542,0 c 0.938136,0 1.830509,-0.327966 2.555085,-0.945763 0.244068,-0.213559 1.319492,-1.144068 2.593221,-2.547458 0.04576,-0.05339 0.09915,-0.0839 0.160169,-0.09915 l 11.600847,-3.355932 c 0.221187,-0.06102 0.434746,0.09915 0.434746,0.327966 l 0,2.455932 0,0 z"
     id="path4"
     style="fill:#000000;fill-opacity:1"
     inkscape:connector-curvature="0" />
</svg>
