<?xml version="1.0" encoding="UTF-8" standalone="no"?>
<svg
   xmlns:dc="http://purl.org/dc/elements/1.1/"
   xmlns:cc="http://creativecommons.org/ns#"
   xmlns:rdf="http://www.w3.org/1999/02/22-rdf-syntax-ns#"
   xmlns:svg="http://www.w3.org/2000/svg"
   xmlns="http://www.w3.org/2000/svg"
   xmlns:sodipodi="http://sodipodi.sourceforge.net/DTD/sodipodi-0.dtd"
   xmlns:inkscape="http://www.inkscape.org/namespaces/inkscape"
   width="24"
   height="24"
   viewBox="0 0 24 24"
   id="svg2"
   version="1.1"
   inkscape:version="0.91 r13725"
   sodipodi:docname="eth.svg">
  <metadata
     id="metadata12">
    <rdf:RDF>
      <cc:Work
         rdf:about="">
        <dc:format>image/svg+xml</dc:format>
        <dc:type
           rdf:resource="http://purl.org/dc/dcmitype/StillImage" />
        <dc:title></dc:title>
      </cc:Work>
    </rdf:RDF>
  </metadata>
  <defs
     id="defs10" />
  <sodipodi:namedview
     pagecolor="#ffffff"
     bordercolor="#666666"
     borderopacity="1"
     objecttolerance="10"
     gridtolerance="10"
     guidetolerance="10"
     inkscape:pageopacity="0"
     inkscape:pageshadow="2"
     inkscape:window-width="1920"
     inkscape:window-height="1017"
     id="namedview8"
     showgrid="false"
     inkscape:zoom="6.9532167"
     inkscape:cx="63.690047"
     inkscape:cy="-2.2033513"
     inkscape:window-x="-8"
     inkscape:window-y="-8"
     inkscape:window-maximized="1"
     inkscape:current-layer="svg2" />
  <path
     fill="none"
     d="M0 0h24v24H0V0z"
     id="path4" />
  <path
     style="fill:#000000"
     d="m 11.824715,23.442023 c -0.173101,-0.06662 -0.397633,-0.286202 -0.635121,-0.621113 -0.09345,-0.131784 -0.312876,-0.441893 -0.48762,-0.689136 -0.366388,-0.5184 -0.42627,-0.602743 -0.656275,-0.924393 C 9.952719,21.077359 9.844662,20.925415 9.805563,20.869731 9.7053079,20.726939 9.2968359,20.149852 9.2095589,20.0277 c -0.0401,-0.05611 -0.22551,-0.318148 -0.412038,-0.582298 -0.186528,-0.264152 -0.583168,-0.823526 -0.881423,-1.243062 -0.298255,-0.419531 -0.68493,-0.965074 -0.859275,-1.212316 -0.174346,-0.247246 -0.355131,-0.503196 -0.401747,-0.568785 -0.135808,-0.19109 -0.529866,-0.747734 -0.649089,-0.916905 -0.06023,-0.08546 -0.263463,-0.371506 -0.451635,-0.635654 -0.60876,-0.854569 -0.67359,-0.952102 -0.739744,-1.112918 -0.119973,-0.291649 -0.0608,-0.680668 0.13156,-0.864965 l 0.08489,-0.08133 -0.08586,-0.08859 c -0.196269,-0.202488 -0.253471,-0.593519 -0.13055,-0.892339 0.03586,-0.08718 0.197651,-0.378045 0.359536,-0.646373 0.161883,-0.268328 0.338827,-0.562852 0.393213,-0.654494 0.05438,-0.09164 0.246692,-0.411008 0.427352,-0.7096971 1.132878,-1.8730053 1.443279,-2.3868671 1.923672,-3.1845699 0.294761,-0.4894553 0.781508,-1.296739 1.081662,-1.7939618 0.300152,-0.4972251 0.691448,-1.1455945 0.8695401,-1.4408199 0.178093,-0.2952276 0.562399,-0.9308822 0.854008,-1.4125689 0.29161,-0.4816867 0.555869,-0.9202901 0.587242,-0.9746726 0.106119,-0.18397168 0.333754,-0.39265253 0.493503,-0.45242341 0.197078,-0.0737301 0.465855,-0.0737301 0.66293,0 0.307682,0.11512144 0.220587,-0.0172615 2.50031,3.80021041 0.355845,0.5958755 0.390263,0.6530208 0.612557,1.017052 0.06642,0.1087608 0.89992,1.5008538 1.852226,3.0935232 0.952304,1.59267 1.76092,2.940263 1.796922,2.994646 0.036,0.05438 0.100716,0.175159 0.143808,0.268389 0.145069,0.313861 0.116272,0.758323 -0.06293,0.971291 l -0.06699,0.07962 0.08359,0.08009 c 0.108252,0.103711 0.196768,0.342971 0.196768,0.531854 0,0.295807 0.01509,0.270252 -1.044527,1.769683 -0.192157,0.27192 -0.382182,0.540528 -0.422275,0.596912 -0.0401,0.05638 -0.175234,0.247077 -0.300314,0.42377 -0.361561,0.510763 -0.413659,0.584356 -0.66744,0.942789 -0.239064,0.337648 -0.781095,1.102794 -0.99066,1.398441 -0.306794,0.43282 -0.552797,0.781457 -0.628856,0.891217 -0.08509,0.122783 -0.461625,0.654159 -1.060103,1.496026 -0.176737,0.248613 -0.366481,0.516862 -0.421656,0.596111 -0.05518,0.07925 -0.202023,0.286892 -0.32633,0.46143 -0.124307,0.174537 -0.26415,0.372114 -0.310765,0.439062 -0.395722,0.568332 -0.492006,0.697277 -0.617871,0.827471 -0.241613,0.249923 -0.586557,0.327216 -0.908068,0.203475 z m -0.552807,-4.978358 c -0.0068,-1.291007 -0.0031,-1.429834 0.04108,-1.53225 0.02676,-0.06194 0.07562,-0.141349 0.108607,-0.17646 0.03299,-0.0351 0.05463,-0.06875 0.04809,-0.07475 -0.0065,-0.0059 -0.126304,-0.07838 -0.266147,-0.160845 -0.139834,-0.08246 -0.406812,-0.240958 -0.59327,-0.35221 -0.372423,-0.222206 -1.1844211,-0.703811 -1.8222141,-1.080771 -0.225306,-0.133163 -0.53042,-0.314744 -0.678034,-0.40351 -0.147612,-0.08877 -0.411767,-0.245145 -0.587005,-0.347508 l -0.318616,-0.186115 0.123333,0.176081 c 0.234346,0.334563 0.622084,0.883514 0.852713,1.207256 0.127296,0.178687 0.483476,0.680856 0.791508,1.115927 0.308028,0.435071 0.643749,0.908066 0.746043,1.051097 0.1022961,0.143032 0.2813371,0.396323 0.3978721,0.56287 0.116538,0.166547 0.25638,0.363929 0.310767,0.438629 0.05438,0.07471 0.264149,0.370815 0.466146,0.658039 0.201998,0.28722 0.371636,0.522655 0.376975,0.523185 0.0053,5.77e-4 0.0063,-0.63787 0.002,-1.41867 z m 2.831438,-0.162443 c 0.225285,-0.318536 0.453204,-0.641432 0.506492,-0.717554 0.05328,-0.07612 0.129578,-0.184181 0.169542,-0.240134 0.0734,-0.102782 0.214198,-0.301475 1.283242,-1.810946 0.324636,-0.458379 0.626277,-0.884271 0.670312,-0.946422 0.04404,-0.06216 0.130574,-0.185419 0.192312,-0.273926 l 0.112248,-0.160924 -0.162464,0.09217 c -0.08935,0.05069 -0.289593,0.168572 -0.444975,0.261959 -0.321383,0.193155 -1.227896,0.730803 -1.793963,1.063993 -0.209766,0.123466 -0.425889,0.252714 -0.480272,0.287211 -0.151487,0.0961 -1.068389,0.636604 -1.238143,0.729879 l -0.150459,0.08268 0.07127,0.0744 c 0.170863,0.178386 0.169631,0.165296 0.161259,1.712636 l -0.0076,1.41222 0.350815,-0.494048 c 0.192949,-0.271721 0.535138,-0.754664 0.760423,-1.073196 z m -2.829167,-5.748457 0,-1.962773 -0.0716,0.02724 c -0.03938,0.01497 -0.28093,0.12272 -0.536775,0.239436 -0.548556,0.250252 -1.3139511,0.597359 -1.6517321,0.749053 -0.132074,0.05932 -0.462617,0.20953 -0.734534,0.33381 -0.271921,0.12428 -0.548433,0.247582 -0.614468,0.274005 -0.06604,0.02644 -0.120071,0.05669 -0.120071,0.06726 0,0.01061 0.06674,0.05877 0.148321,0.107114 0.08157,0.04835 0.326305,0.192812 0.543839,0.321032 0.217537,0.128222 0.516293,0.30554 0.663909,0.394039 0.258815,0.155172 0.598858,0.356366 1.4690691,0.869213 0.225306,0.132781 0.454143,0.269023 0.508526,0.302765 0.235654,0.146203 0.381889,0.23585 0.388456,0.238135 0.0038,0.0014 0.007,-0.88079 0.007,-1.960314 z m 2.076474,1.729449 c 0.09324,-0.05513 0.328424,-0.194458 0.522652,-0.309633 0.194226,-0.115177 0.543839,-0.322164 0.776912,-0.459966 0.233073,-0.137806 0.639894,-0.379358 0.904043,-0.53678 0.264152,-0.157425 0.629652,-0.374212 0.812229,-0.481743 0.182575,-0.107535 0.331953,-0.202935 0.331953,-0.211995 0,-0.0091 -0.149378,-0.08453 -0.331953,-0.167696 -0.473927,-0.215891 -1.276947,-0.581342 -1.786899,-0.813206 -0.240845,-0.109513 -0.609525,-0.277926 -0.819291,-0.37427 -0.209765,-0.09634 -0.467206,-0.21116 -0.572092,-0.255147 l -0.190695,-0.07997 0,1.950047 0,1.950049 0.09182,-0.05473 c 0.05051,-0.0301 0.168094,-0.09983 0.261324,-0.154949 z M 9.0988209,9.6349669 C 9.3396649,9.5259078 9.6511369,9.3855289 9.79098,9.323023 9.930825,9.26052 10.267722,9.1076906 10.539641,8.9834092 10.811561,8.8591289 11.088073,8.7358266 11.154109,8.7094055 l 0.12007,-0.048038 0,-2.0734069 c 0,-1.1403752 -0.0053,-2.0734101 -0.01172,-2.0734101 -0.0064,0 -0.04266,0.054026 -0.08049,0.12007 -0.06792,0.1185587 -0.517148,0.8635143 -1.8015791,2.9875819 -0.361745,0.5982249 -0.697041,1.1549047 -0.745099,1.2370709 -0.227005,0.3881184 -0.711577,1.1856077 -0.756972,1.2457977 -0.02793,0.03706 -0.05081,0.0773 -0.05081,0.08942 0,0.01212 0.18752,-0.0642 0.41671,-0.169592 0.229189,-0.1053976 0.613761,-0.2808624 0.854602,-0.3899248 z M 15.108698,8.024781 C 14.393192,6.8322222 13.766951,5.7865667 13.717048,5.7011074 13.667147,5.6156415 13.484835,5.3112264 13.311913,5.0246172 l -0.314401,-0.5211044 0,2.0789277 0,2.0789245 0.120068,0.048038 c 0.06604,0.026433 0.342548,0.1496979 0.614469,0.273944 0.655035,0.2992997 1.22547,0.558733 1.878716,0.8544346 0.295225,0.1336414 0.587628,0.2674634 0.64978,0.2973834 0.06215,0.02993 0.121121,0.05519 0.131036,0.05616 0.01,8.65e-4 -0.56738,-0.9739811 -1.282883,-2.1665433 z"
     id="path4147"
     inkscape:connector-curvature="0" />
</svg>
